<svg width="152" height="157" viewBox="0 0 152 157" fill="none" xmlns="http://www.w3.org/2000/svg">
<path d="M148.494 63.8621L81.1157 2.9914C78.9254 1.01254 76.0409 -0.0583902 73.0652 0.00245792C70.0895 0.0633061 67.2529 1.25122 65.1483 3.31791L3.18013 64.1696L0 67.2921V157H59.7143V101.027H92.2857V157H152V67.0299L148.494 63.8621ZM73.2986 10.6617C73.3943 10.6617 73.3352 10.682 73.2942 10.7216C73.2518 10.682 73.2029 10.6617 73.2986 10.6617ZM141.143 146.339H103.143V101.027C103.143 98.1997 101.999 95.4879 99.9629 93.4885C97.9268 91.4891 95.1652 90.3658 92.2857 90.3658H59.7143C56.8348 90.3658 54.0732 91.4891 52.0371 93.4885C50.001 95.4879 48.8571 98.1997 48.8571 101.027V146.339H10.8571V71.7082L73.2986 10.8566C73.303 10.8526 73.3034 10.8489 73.3067 10.8449L141.143 71.7082V146.339Z" fill="#979797"/>
<path d="M100.834 79.5101C104.848 75.9334 107.12 71.1659 107.12 66.2185C107.12 60.9607 104.659 56.0434 100.189 52.3717C95.8391 48.7994 90.0813 46.8318 83.9756 46.8318C77.8698 46.8318 72.112 48.7994 67.7627 52.372C63.2932 56.0434 60.8318 60.9607 60.8318 66.2185C60.8318 71.4764 63.2932 76.3936 67.7627 80.0653C72.112 83.6379 77.8698 85.6054 83.9756 85.6054C84.7892 85.6054 85.6077 85.5695 86.4195 85.4981L87.8063 86.7001C92.5838 90.8401 98.6936 93.1191 105.015 93.1193H107.119V88.6409L106.503 88.0248C104.072 85.5868 102.146 82.6934 100.834 79.5101ZM90.5622 83.5199L87.7796 81.1081L86.8517 81.2219C85.8974 81.3386 84.937 81.3971 83.9756 81.3972C73.5346 81.3972 65.0398 74.588 65.0398 66.2185C65.0398 57.849 73.5346 51.0398 83.9756 51.0398C94.4166 51.0398 102.911 57.8489 102.911 66.2185C102.911 70.3883 100.831 74.2812 97.0536 77.18L95.8419 78.1098L96.401 79.6924C97.5469 82.9246 99.2311 85.9397 101.382 88.6102C97.376 87.9415 93.6318 86.1801 90.5622 83.5199Z" fill="#0F8FEB"/>
<path d="M49.8103 69.6437C51.7798 67.1506 53.3261 64.3508 54.3875 61.3562L54.9424 59.7815L53.7317 58.8524C50.1697 56.119 48.208 52.4505 48.208 48.5225C48.208 40.6294 56.2306 34.208 66.0918 34.208C73.3463 34.208 79.6055 37.6835 82.4077 42.6633C82.9281 42.6381 83.4506 42.6239 83.9756 42.6239C85.0299 42.6239 86.0746 42.675 87.1097 42.7773C86.0268 39.9718 84.1461 37.4107 81.5605 35.287C77.4101 31.8777 71.9172 30 66.0918 30C60.2664 30 54.7734 31.8777 50.6228 35.287C46.352 38.7953 44 43.4957 44 48.5225C44 53.2302 46.1503 57.7662 49.9503 61.1783C48.7102 64.1627 46.8982 66.8756 44.6163 69.1641L44 69.7803V74.1835H46.104C49.9946 74.1831 53.8318 73.277 57.3117 71.5371C56.9301 70.0908 56.7066 68.6074 56.6449 67.1129C54.5327 68.3508 52.2193 69.2074 49.8103 69.6437Z" fill="#0F8FEB"/>
</svg>
