<svg width="110" height="121" viewBox="0 0 110 121" fill="none" xmlns="http://www.w3.org/2000/svg">
<path d="M110 38.39V88C110 94.05 105.05 99 99 99H22L0 121V22C0 15.95 4.95 11 11 11H66.55C66.22 12.76 66 14.63 66 16.5C66 18.37 66.22 20.24 66.55 22H11V88H99V43.45C103.07 42.625 106.81 40.81 110 38.39ZM77 16.5C77 25.63 84.37 33 93.5 33C102.63 33 110 25.63 110 16.5C110 7.37 102.63 0 93.5 0C84.37 0 77 7.37 77 16.5Z" fill="#0F8FEB"/>
<path d="M78.8697 49.6696L57.1492 29.9682C56.4431 29.3277 55.5132 28.9811 54.5539 29.0008C53.5946 29.0205 52.6802 29.405 52.0018 30.0739L32.0252 49.7691L31 50.7797V79.8145H50.25V61.6984H60.75V79.8145H80V50.6948L78.8697 49.6696ZM54.6292 32.4507C54.66 32.4507 54.641 32.4573 54.6277 32.4702C54.6141 32.4573 54.5983 32.4507 54.6292 32.4507ZM76.5 76.3639H64.25V61.6984C64.25 60.7833 63.8813 59.9056 63.2249 59.2584C62.5685 58.6113 61.6783 58.2478 60.75 58.2478H50.25C49.3217 58.2478 48.4315 58.6113 47.7751 59.2584C47.1187 59.9056 46.75 60.7833 46.75 61.6984V76.3639H34.5V52.2091L54.6292 32.5138C54.6306 32.5125 54.6307 32.5114 54.6318 32.5101L76.5 52.2091V76.3639Z" fill="#979797"/>
</svg>
