<svg width="317" height="70" viewBox="0 0 317 70" fill="none" xmlns="http://www.w3.org/2000/svg">
<path d="M64.4776 27.7296L35.2213 1.2989C34.2702 0.439656 33.0178 -0.0253537 31.7257 0.00106725C30.4336 0.0274882 29.2019 0.543294 28.2881 1.44067L1.38084 27.8631L0 29.2189V68.1711H25.9286V43.8671H40.0714V68.1711H66V29.1051L64.4776 27.7296ZM31.827 4.62941C31.8686 4.62941 31.8429 4.63823 31.8251 4.65545C31.8067 4.63823 31.7855 4.62941 31.827 4.62941ZM61.2857 63.5417H44.7857V43.8671C44.7857 42.6393 44.289 41.4619 43.4049 40.5937C42.5208 39.7255 41.3217 39.2378 40.0714 39.2378H25.9286C24.6783 39.2378 23.4792 39.7255 22.5951 40.5937C21.711 41.4619 21.2143 42.6393 21.2143 43.8671V63.5417H4.71429V31.1365L31.827 4.71404C31.8289 4.7123 31.8291 4.71071 31.8306 4.70897L61.2857 31.1365V63.5417Z" fill="#979797"/>
<path d="M43.7833 34.5241C45.5259 32.9711 46.5126 30.901 46.5126 28.7528C46.5126 26.4698 45.4439 24.3346 43.5032 22.7404C41.6144 21.1892 39.1143 20.3349 36.4631 20.3349C33.8119 20.3349 31.3118 21.1892 29.4233 22.7405C27.4826 24.3346 26.4138 26.4698 26.4138 28.7528C26.4138 31.0358 27.4826 33.1709 29.4233 34.7652C31.3118 36.3165 33.8119 37.1708 36.4631 37.1708C36.8163 37.1708 37.1718 37.1552 37.5242 37.1242L38.1264 37.6461C40.2009 39.4437 42.8538 40.4333 45.5988 40.4334H46.5123V38.4888L46.2448 38.2213C45.1893 37.1627 44.3528 35.9063 43.7833 34.5241V34.5241ZM39.3231 36.2652L38.1148 35.218L37.7119 35.2674C37.2976 35.3181 36.8805 35.3435 36.4631 35.3435C31.9295 35.3435 28.241 32.3869 28.241 28.7528C28.241 25.1187 31.9295 22.162 36.4631 22.162C40.9967 22.162 44.6852 25.1186 44.6852 28.7528C44.6852 30.5634 43.7819 32.2537 42.1417 33.5124L41.6156 33.9161L41.8583 34.6033C42.3559 36.0067 43.0872 37.3159 44.0213 38.4755C42.2817 38.1851 40.6559 37.4203 39.3231 36.2652V36.2652Z" fill="#0F8FEB"/>
<path d="M21.6281 30.24C22.4833 29.1575 23.1547 27.9418 23.6156 26.6415L23.8566 25.9578L23.3309 25.5543C21.7842 24.3675 20.9324 22.7746 20.9324 21.069C20.9324 17.6417 24.4159 14.8535 28.6977 14.8535C31.8477 14.8535 34.5655 16.3626 35.7823 18.5249C36.0082 18.5139 36.2351 18.5077 36.4631 18.5077C36.9209 18.5077 37.3745 18.5299 37.824 18.5744C37.3537 17.3562 36.5371 16.2441 35.4144 15.322C33.6123 13.8416 31.2272 13.0263 28.6977 13.0263C26.1683 13.0263 23.7832 13.8416 21.9809 15.322C20.1265 16.8453 19.1053 18.8863 19.1053 21.069C19.1053 23.1131 20.0389 25.0827 21.6889 26.5643C21.1505 27.8601 20.3637 29.0381 19.3729 30.0318L19.1053 30.2993V32.2113H20.0188C21.7082 32.2111 23.3743 31.8176 24.8854 31.0622C24.7197 30.4342 24.6226 29.79 24.5958 29.1411C23.6787 29.6786 22.6741 30.0506 21.6281 30.24V30.24Z" fill="#0F8FEB"/>
<path opacity="0.6" d="M116.909 35.7432C115.69 36.0605 113.888 36.562 111.501 37.2476C111.501 32.9692 112.034 28.3862 113.101 23.4985C110.523 23.4985 108.346 23.9365 106.569 24.8125C104.208 33.1152 102.24 37.2666 100.666 37.2666C100.132 37.2666 99.5674 36.6763 98.9707 35.4956C98.4502 34.4292 98.1899 33.585 98.1899 32.9629C98.1899 31.6934 98.7231 30.2334 99.7896 28.583C101.097 26.5645 101.859 25.187 102.075 24.4507C102.608 22.6733 102.951 20.5088 103.103 17.957C103.154 16.9541 103.198 14.7515 103.236 11.3491C104.658 10.9556 106.543 10.5049 108.892 9.99707C108.892 12.5361 108.308 16.6431 107.14 22.3179C110.162 20.9976 112.523 20.1597 114.224 19.8042C114.77 17.8745 115.189 16.4463 115.481 15.5195C115.989 13.9453 116.509 12.5552 117.042 11.3491C118.363 10.9937 120.331 10.4478 122.946 9.71143C120.737 14.1294 119.188 18.0903 118.299 21.5942C117.36 25.2759 116.89 29.4019 116.89 33.9722C116.89 34.5435 116.896 35.1338 116.909 35.7432ZM129.763 37.2666C128.151 37.2666 126.583 35.8828 125.06 33.1152C123.701 30.6396 123.022 28.5132 123.022 26.7358C123.022 23.6382 123.993 20.4136 125.936 17.062C127.878 13.7104 130.188 11.2539 132.867 9.69238L135.914 11.3491C139.189 10.4351 140.859 9.97803 140.922 9.97803C141.583 9.97803 142.211 11.0317 142.808 13.1392C143.303 14.9165 143.55 16.2876 143.55 17.2524C143.55 19.4106 142.884 22.064 141.551 25.2124C140.167 28.5132 138.485 31.2617 136.504 33.458C134.219 35.9971 131.972 37.2666 129.763 37.2666ZM136.39 12.2822H135.819C133.292 14.2119 131.375 16.8081 130.068 20.0708C128.875 23.0288 128.278 26.2407 128.278 29.7065C128.278 30.8618 128.995 32.4995 130.43 34.6196C135.47 29.5669 137.99 24.6157 137.99 19.7661C137.99 17.5571 137.457 15.0625 136.39 12.2822ZM169.392 27.8022C169.392 29.8589 169.588 32.5059 169.982 35.7432C168.916 36.0479 167.297 36.4541 165.126 36.9619C164.732 34.626 164.536 32.7344 164.536 31.2871C164.536 28.8115 165.069 24.9141 166.135 19.5947L166.002 19.4805C164.897 22.2607 163.311 25.5615 161.241 29.3828C158.41 34.6387 156.411 37.2666 155.243 37.2666C153.808 37.2666 153.091 32.9565 153.091 24.3364C153.091 23.0669 153.11 21.6133 153.148 19.9756C153.186 18.3252 153.205 17.4365 153.205 17.3096L153.072 17.062C151.955 22.0894 151.117 25.5361 150.558 27.4023C149.39 31.249 147.956 34.48 146.254 37.0952L142.427 35.3242C148.851 26.7295 152.069 18.687 152.082 11.1968L158.08 9.69238C157.42 14.1484 157.09 17.7031 157.09 20.3564C157.09 21.2578 157.166 22.7305 157.318 24.7744C157.369 25.4473 157.477 26.2153 157.642 27.0786C157.896 28.3101 158.156 28.9258 158.423 28.9258C159.502 28.9258 160.797 27.2627 162.308 23.9365C163.095 22.2227 164.282 19.1313 165.869 14.6626C167.049 11.3364 167.779 9.67334 168.059 9.67334C168.858 9.67334 169.715 10.2891 170.629 11.5205C171.493 12.6758 171.924 13.666 171.924 14.4912C171.924 14.5547 171.689 15.0942 171.22 16.1099C170.001 18.7759 169.392 22.6733 169.392 27.8022ZM191.596 14.6436C188.828 14.3008 186.987 14.1421 186.073 14.1675L183.636 14.2437C182.519 16.7827 181.433 19.6138 180.379 22.7368L180.551 22.8511L182.15 21.0229C184.702 20.7563 187.311 20.623 189.977 20.623L187.863 25.0981C186.505 24.7554 184.715 24.584 182.493 24.584C181.363 24.584 180.544 24.6855 180.037 24.8887C179.694 25.6504 179.281 27.3452 178.799 29.9731L176.076 32.4487L176.19 32.5439C177.104 32.5439 178.481 32.4106 180.322 32.144C182.163 31.8774 183.547 31.7441 184.474 31.7441C186.2 31.7441 187.705 31.8394 188.987 32.0298L187.33 36.8857C184.956 36.416 182.582 36.1812 180.208 36.1812C176.577 36.1812 174.013 36.4351 172.515 36.9429C173.2 34.937 173.962 31.6362 174.8 27.0405C175.612 22.7114 176.438 19.4297 177.275 17.1953L181.027 14.4531C179.237 14.6309 177.599 14.8911 176.114 15.2339L178.056 11.1206C182.271 10.1558 185.927 9.67334 189.025 9.67334C190.053 9.67334 191.507 9.7749 193.386 9.97803L191.596 14.6436ZM208.772 14.396C206.373 15.145 204.088 15.5513 201.917 15.6147L204.126 16.8145C202.272 21.3594 201.346 26.228 201.346 31.4204C201.346 32.8042 201.409 34.2197 201.536 35.667L195.671 37.2476C195.671 30.1382 197.048 22.9526 199.803 15.6909C198.521 15.6909 196.496 15.3481 193.729 14.6626L195.442 10.1685C197.359 10.854 199.353 11.1968 201.422 11.1968C202.336 11.1968 203.675 11.0254 205.44 10.6826C207.217 10.3398 208.512 10.1685 209.325 10.1685H210.201L208.772 14.396ZM214.657 37.2666C213.044 37.2666 211.477 35.8828 209.953 33.1152C208.595 30.6396 207.916 28.5132 207.916 26.7358C207.916 23.6382 208.887 20.4136 210.829 17.062C212.771 13.7104 215.082 11.2539 217.761 9.69238L220.808 11.3491C224.083 10.4351 225.752 9.97803 225.816 9.97803C226.476 9.97803 227.104 11.0317 227.701 13.1392C228.196 14.9165 228.444 16.2876 228.444 17.2524C228.444 19.4106 227.777 22.064 226.444 25.2124C225.061 28.5132 223.378 31.2617 221.398 33.458C219.113 35.9971 216.866 37.2666 214.657 37.2666ZM221.284 12.2822H220.712C218.186 14.2119 216.269 16.8081 214.961 20.0708C213.768 23.0288 213.171 26.2407 213.171 29.7065C213.171 30.8618 213.889 32.4995 215.323 34.6196C220.363 29.5669 222.883 24.6157 222.883 19.7661C222.883 17.5571 222.35 15.0625 221.284 12.2822ZM246.306 37.3999C245.303 37.3999 244.402 36.6191 243.602 35.0576C242.917 33.7119 242.574 32.4805 242.574 31.3633C242.574 28.6211 242.809 25.9106 243.278 23.2319C242.148 25.8472 241.019 28.4561 239.889 31.0586C238.162 34.7148 236.537 36.7842 235.014 37.2666C234.354 37.2666 233.344 36.3018 231.986 34.3721C230.653 32.4805 229.986 31.1538 229.986 30.3921C229.986 25.1997 231.237 18.8267 233.738 11.2729L239.66 9.69238C237.718 15.1133 236.601 18.3379 236.309 19.3662C235.191 23.0986 234.633 26.4438 234.633 29.4019C234.633 29.8589 234.804 30.3032 235.147 30.7349C235.477 31.103 235.801 31.4712 236.118 31.8394C238.238 29.5669 239.958 26.6597 241.279 23.1177C242.32 19.9058 243.354 16.6875 244.383 13.4629C244.751 12.4219 245.678 11.5396 247.163 10.8159C248.483 10.1685 249.772 9.83838 251.029 9.82568L251.905 10.7207C251.905 11.5586 251.492 12.7583 250.667 14.3198C249.537 16.4526 248.769 18.084 248.363 19.2139C247.55 21.5625 247.144 24.1206 247.144 26.8882C247.144 27.269 247.15 27.6499 247.163 28.0308L247.277 31.0776C248.56 29.9858 250.223 28.1006 252.267 25.4219C254.603 22.375 255.771 20.3057 255.771 19.2139C255.771 18.5791 255.656 17.6396 255.428 16.3955C255.212 15.1387 255.104 14.2119 255.104 13.6152C255.104 12.5742 255.821 11.4951 257.256 10.3779C258.589 9.33691 259.808 8.75928 260.912 8.64502C261.382 9.00049 261.617 9.43213 261.617 9.93994C261.617 11.2729 260.525 14.25 258.341 18.8711C256.221 23.3906 254 27.4976 251.676 31.1919C249.074 35.3306 247.284 37.3999 246.306 37.3999ZM278.279 36.6001L274.356 37.7046C271.119 32.3218 268.993 24.9775 267.977 15.6719C266.263 25.3965 264.226 32.7534 261.864 37.7427C261.191 37.5142 259.846 36.8794 257.827 35.8384C263.489 26.6343 266.327 18.4458 266.339 11.2729L272.262 9.69238L272.205 12.2441C272.116 15.1514 272.522 18.5981 273.423 22.5845C274.439 27.1167 275.715 30.2524 277.251 31.9917C278.825 27.5483 279.612 24.1523 279.612 21.8037C279.612 21.0166 279.346 19.8867 278.812 18.4141C278.279 16.9287 278.013 15.7861 278.013 14.9863C278.013 13.9072 278.603 12.752 279.784 11.5205C280.964 10.2891 282.094 9.67334 283.173 9.67334C283.173 9.67334 283.491 9.79395 284.125 10.0352C284.227 10.6953 284.278 11.0254 284.278 11.0254C284.278 13.8691 283.529 18.1221 282.031 23.7842C281.586 25.498 280.336 29.77 278.279 36.6001Z" fill="#0F8FEB"/>
<path opacity="0.6" d="M85.8618 46.043C84.6177 44.875 83.6719 44.0371 83.0244 43.5293C81.7168 42.5137 80.6377 41.936 79.7871 41.7964C78.3398 42.812 76.9688 45.1924 75.6738 48.9375C74.4932 52.3398 73.9028 55.1138 73.9028 57.2593C73.9028 58.2114 74.4614 59.2969 75.5786 60.5156C76.6958 61.7217 77.7178 62.3247 78.6445 62.3247C79.6729 62.3247 81.5454 61.3662 84.2622 59.4492L85.1953 60.8394C83.1514 62.6167 81.6597 63.8101 80.7202 64.4194C78.854 65.6255 77.083 66.2285 75.4072 66.2285C73.4141 66.2285 71.7192 65.1621 70.3228 63.0293C69.0659 61.1377 68.4375 59.1382 68.4375 57.0308C68.4375 52.9302 69.7197 48.9565 72.2842 45.1099C75.1279 40.8188 78.4922 38.6733 82.377 38.6733C83.5703 38.6733 84.7764 39.0859 85.9951 39.9111C86.7568 40.4189 87.7344 41.2695 88.9277 42.4629L85.8618 46.043ZM107.476 64.7432C106.257 65.0605 104.454 65.562 102.067 66.2476C102.067 61.9692 102.601 57.3862 103.667 52.4985C101.09 52.4985 98.9126 52.9365 97.1353 53.8125C94.7739 62.1152 92.8062 66.2666 91.2319 66.2666C90.6987 66.2666 90.1338 65.6763 89.5371 64.4956C89.0166 63.4292 88.7563 62.585 88.7563 61.9629C88.7563 60.6934 89.2896 59.2334 90.356 57.583C91.6636 55.5645 92.4253 54.187 92.6411 53.4507C93.1743 51.6733 93.5171 49.5088 93.6694 46.957C93.7202 45.9541 93.7646 43.7515 93.8027 40.3491C95.2246 39.9556 97.1099 39.5049 99.4585 38.9971C99.4585 41.5361 98.8745 45.6431 97.7065 51.3179C100.728 49.9976 103.089 49.1597 104.791 48.8042C105.336 46.8745 105.755 45.4463 106.047 44.5195C106.555 42.9453 107.076 41.5552 107.609 40.3491C108.929 39.9937 110.897 39.4478 113.512 38.7114C111.303 43.1294 109.754 47.0903 108.866 50.5942C107.926 54.2759 107.457 58.4019 107.457 62.9722C107.457 63.5435 107.463 64.1338 107.476 64.7432ZM126.804 66.2476C125.839 64.064 125.262 61.0107 125.071 57.0879C123.84 56.5293 122.259 56.25 120.33 56.25H119.606C118.679 58.04 117.549 59.9507 116.216 61.9819C114.299 64.9272 112.985 66.3999 112.274 66.3999C111.437 66.3999 111.018 65.4033 111.018 63.4102C111.018 61.9375 111.278 60.7188 111.798 59.7539C112.192 58.9922 112.865 58.2178 113.817 57.4307C114.782 56.6816 115.747 55.9263 116.711 55.1646C117.905 54.1743 119.352 51.8574 121.053 48.2139C122.754 44.6084 123.637 42.0059 123.7 40.4062L129.984 38.6924C129.502 41.6504 129.261 45.1035 129.261 49.0518C129.261 54.917 130.035 60.1729 131.584 64.8193C129.604 65.3398 128.01 65.8159 126.804 66.2476ZM125.014 43.2437C123.694 47.7378 122.183 51.4385 120.482 54.3457C121.383 54.1807 122.862 54.0981 124.919 54.0981C124.944 51.9653 125.097 48.3472 125.376 43.2437H125.014ZM136.783 59.7349C135.856 59.7349 135.291 59.2651 135.088 58.3257C135.507 57.6021 136.611 56.7896 138.401 55.8882C140.153 54.9995 141.48 54.5552 142.381 54.5552C142.483 54.5552 142.648 54.644 142.876 54.8218C143.333 56.0659 143.568 56.7007 143.581 56.7261C143.86 57.4116 144.178 58.0083 144.533 58.5161C143.67 58.5288 142.381 58.7383 140.667 59.1445C138.966 59.5381 137.671 59.7349 136.783 59.7349ZM165.576 46.043C164.332 44.875 163.386 44.0371 162.738 43.5293C161.431 42.5137 160.352 41.936 159.501 41.7964C158.054 42.812 156.683 45.1924 155.388 48.9375C154.207 52.3398 153.617 55.1138 153.617 57.2593C153.617 58.2114 154.175 59.2969 155.292 60.5156C156.41 61.7217 157.432 62.3247 158.358 62.3247C159.387 62.3247 161.259 61.3662 163.976 59.4492L164.909 60.8394C162.865 62.6167 161.374 63.8101 160.434 64.4194C158.568 65.6255 156.797 66.2285 155.121 66.2285C153.128 66.2285 151.433 65.1621 150.037 63.0293C148.78 61.1377 148.151 59.1382 148.151 57.0308C148.151 52.9302 149.434 48.9565 151.998 45.1099C154.842 40.8188 158.206 38.6733 162.091 38.6733C163.284 38.6733 164.49 39.0859 165.709 39.9111C166.471 40.4189 167.448 41.2695 168.642 42.4629L165.576 46.043ZM187.189 64.7432C185.971 65.0605 184.168 65.562 181.781 66.2476C181.781 61.9692 182.314 57.3862 183.381 52.4985C180.804 52.4985 178.626 52.9365 176.849 53.8125C174.488 62.1152 172.52 66.2666 170.946 66.2666C170.413 66.2666 169.848 65.6763 169.251 64.4956C168.73 63.4292 168.47 62.585 168.47 61.9629C168.47 60.6934 169.003 59.2334 170.07 57.583C171.377 55.5645 172.139 54.187 172.355 53.4507C172.888 51.6733 173.231 49.5088 173.383 46.957C173.434 45.9541 173.479 43.7515 173.517 40.3491C174.938 39.9556 176.824 39.5049 179.172 38.9971C179.172 41.5361 178.588 45.6431 177.42 51.3179C180.442 49.9976 182.803 49.1597 184.504 48.8042C185.05 46.8745 185.469 45.4463 185.761 44.5195C186.269 42.9453 186.79 41.5552 187.323 40.3491C188.643 39.9937 190.611 39.4478 193.226 38.7114C191.017 43.1294 189.468 47.0903 188.58 50.5942C187.64 54.2759 187.17 58.4019 187.17 62.9722C187.17 63.5435 187.177 64.1338 187.189 64.7432ZM206.518 66.2476C205.553 64.064 204.976 61.0107 204.785 57.0879C203.554 56.5293 201.973 56.25 200.043 56.25H199.32C198.393 58.04 197.263 59.9507 195.93 61.9819C194.013 64.9272 192.699 66.3999 191.988 66.3999C191.15 66.3999 190.731 65.4033 190.731 63.4102C190.731 61.9375 190.992 60.7188 191.512 59.7539C191.906 58.9922 192.579 58.2178 193.531 57.4307C194.496 56.6816 195.46 55.9263 196.425 55.1646C197.619 54.1743 199.066 51.8574 200.767 48.2139C202.468 44.6084 203.351 42.0059 203.414 40.4062L209.698 38.6924C209.216 41.6504 208.975 45.1035 208.975 49.0518C208.975 54.917 209.749 60.1729 211.298 64.8193C209.317 65.3398 207.724 65.8159 206.518 66.2476ZM204.728 43.2437C203.408 47.7378 201.897 51.4385 200.196 54.3457C201.097 54.1807 202.576 54.0981 204.633 54.0981C204.658 51.9653 204.811 48.3472 205.09 43.2437H204.728ZM216.497 59.7349C215.57 59.7349 215.005 59.2651 214.802 58.3257C215.221 57.6021 216.325 56.7896 218.115 55.8882C219.867 54.9995 221.194 54.5552 222.095 54.5552C222.197 54.5552 222.362 54.644 222.59 54.8218C223.047 56.0659 223.282 56.7007 223.295 56.7261C223.574 57.4116 223.892 58.0083 224.247 58.5161C223.384 58.5288 222.095 58.7383 220.381 59.1445C218.68 59.5381 217.385 59.7349 216.497 59.7349ZM245.29 46.043C244.045 44.875 243.1 44.0371 242.452 43.5293C241.145 42.5137 240.065 41.936 239.215 41.7964C237.768 42.812 236.396 45.1924 235.102 48.9375C233.921 52.3398 233.331 55.1138 233.331 57.2593C233.331 58.2114 233.889 59.2969 235.006 60.5156C236.124 61.7217 237.146 62.3247 238.072 62.3247C239.101 62.3247 240.973 61.3662 243.69 59.4492L244.623 60.8394C242.579 62.6167 241.087 63.8101 240.148 64.4194C238.282 65.6255 236.511 66.2285 234.835 66.2285C232.842 66.2285 231.147 65.1621 229.75 63.0293C228.494 61.1377 227.865 59.1382 227.865 57.0308C227.865 52.9302 229.147 48.9565 231.712 45.1099C234.556 40.8188 237.92 38.6733 241.805 38.6733C242.998 38.6733 244.204 39.0859 245.423 39.9111C246.185 40.4189 247.162 41.2695 248.355 42.4629L245.29 46.043ZM266.903 64.7432C265.685 65.0605 263.882 65.562 261.495 66.2476C261.495 61.9692 262.028 57.3862 263.095 52.4985C260.518 52.4985 258.34 52.9365 256.563 53.8125C254.202 62.1152 252.234 66.2666 250.66 66.2666C250.126 66.2666 249.562 65.6763 248.965 64.4956C248.444 63.4292 248.184 62.585 248.184 61.9629C248.184 60.6934 248.717 59.2334 249.784 57.583C251.091 55.5645 251.853 54.187 252.069 53.4507C252.602 51.6733 252.945 49.5088 253.097 46.957C253.148 45.9541 253.192 43.7515 253.23 40.3491C254.652 39.9556 256.538 39.5049 258.886 38.9971C258.886 41.5361 258.302 45.6431 257.134 51.3179C260.156 49.9976 262.517 49.1597 264.218 48.8042C264.764 46.8745 265.183 45.4463 265.475 44.5195C265.983 42.9453 266.503 41.5552 267.037 40.3491C268.357 39.9937 270.325 39.4478 272.94 38.7114C270.731 43.1294 269.182 47.0903 268.293 50.5942C267.354 54.2759 266.884 58.4019 266.884 62.9722C266.884 63.5435 266.891 64.1338 266.903 64.7432ZM286.232 66.2476C285.267 64.064 284.689 61.0107 284.499 57.0879C283.268 56.5293 281.687 56.25 279.757 56.25H279.034C278.107 58.04 276.977 59.9507 275.644 61.9819C273.727 64.9272 272.413 66.3999 271.702 66.3999C270.864 66.3999 270.445 65.4033 270.445 63.4102C270.445 61.9375 270.706 60.7188 271.226 59.7539C271.62 58.9922 272.292 58.2178 273.245 57.4307C274.209 56.6816 275.174 55.9263 276.139 55.1646C277.333 54.1743 278.78 51.8574 280.481 48.2139C282.182 44.6084 283.064 42.0059 283.128 40.4062L289.412 38.6924C288.93 41.6504 288.688 45.1035 288.688 49.0518C288.688 54.917 289.463 60.1729 291.012 64.8193C289.031 65.3398 287.438 65.8159 286.232 66.2476ZM284.442 43.2437C283.122 47.7378 281.611 51.4385 279.91 54.3457C280.811 54.1807 282.29 54.0981 284.347 54.0981C284.372 51.9653 284.524 48.3472 284.804 43.2437H284.442ZM309.445 43.396C307.046 44.145 304.761 44.5513 302.59 44.6147L304.799 45.8145C302.945 50.3594 302.019 55.228 302.019 60.4204C302.019 61.8042 302.082 63.2197 302.209 64.667L296.344 66.2476C296.344 59.1382 297.721 51.9526 300.476 44.6909C299.194 44.6909 297.169 44.3481 294.401 43.6626L296.115 39.1685C298.032 39.854 300.025 40.1968 302.095 40.1968C303.009 40.1968 304.348 40.0254 306.113 39.6826C307.89 39.3398 309.185 39.1685 309.998 39.1685H310.874L309.445 43.396Z" fill="#0F8FEB"/>
</svg>
