<svg width="251" height="62" viewBox="0 0 251 62" fill="none" xmlns="http://www.w3.org/2000/svg">
<path opacity="0.6" d="M50.9092 27.7432C49.6904 28.0605 47.8877 28.562 45.501 29.2476C45.501 24.9692 46.0342 20.3862 47.1006 15.4985C44.5234 15.4985 42.3462 15.9365 40.5688 16.8125C38.2075 25.1152 36.2397 29.2666 34.6655 29.2666C34.1323 29.2666 33.5674 28.6763 32.9707 27.4956C32.4502 26.4292 32.1899 25.585 32.1899 24.9629C32.1899 23.6934 32.7231 22.2334 33.7896 20.583C35.0972 18.5645 35.8589 17.187 36.0747 16.4507C36.6079 14.6733 36.9507 12.5088 37.103 9.95703C37.1538 8.9541 37.1982 6.75146 37.2363 3.34912C38.6582 2.95557 40.5435 2.50488 42.8921 1.99707C42.8921 4.53613 42.3081 8.64307 41.1401 14.3179C44.1616 12.9976 46.5229 12.1597 48.2241 11.8042C48.77 9.87451 49.189 8.44629 49.481 7.51953C49.9888 5.94531 50.5093 4.55518 51.0425 3.34912C52.3628 2.99365 54.3306 2.44775 56.9458 1.71143C54.7368 6.12939 53.188 10.0903 52.2993 13.5942C51.3599 17.2759 50.8901 21.4019 50.8901 25.9722C50.8901 26.5435 50.8965 27.1338 50.9092 27.7432ZM63.7632 29.2666C62.1509 29.2666 60.583 27.8828 59.0596 25.1152C57.7012 22.6396 57.022 20.5132 57.022 18.7358C57.022 15.6382 57.9932 12.4136 59.9355 9.06201C61.8779 5.71045 64.1885 3.25391 66.8672 1.69238L69.9141 3.34912C73.1895 2.43506 74.8589 1.97803 74.9224 1.97803C75.5825 1.97803 76.2109 3.03174 76.8076 5.13916C77.3027 6.9165 77.5503 8.2876 77.5503 9.25244C77.5503 11.4106 76.8838 14.064 75.5508 17.2124C74.167 20.5132 72.4849 23.2617 70.5044 25.458C68.2192 27.9971 65.9722 29.2666 63.7632 29.2666ZM70.3901 4.28223H69.8188C67.2925 6.21191 65.3755 8.80811 64.0679 12.0708C62.8745 15.0288 62.2778 18.2407 62.2778 21.7065C62.2778 22.8618 62.9951 24.4995 64.4297 26.6196C69.4697 21.5669 71.9897 16.6157 71.9897 11.7661C71.9897 9.55713 71.4565 7.0625 70.3901 4.28223ZM103.392 19.8022C103.392 21.8589 103.588 24.5059 103.982 27.7432C102.916 28.0479 101.297 28.4541 99.126 28.9619C98.7324 26.626 98.5356 24.7344 98.5356 23.2871C98.5356 20.8115 99.0688 16.9141 100.135 11.5947L100.002 11.4805C98.8975 14.2607 97.3105 17.5615 95.2412 21.3828C92.4102 26.6387 90.4106 29.2666 89.2427 29.2666C87.8081 29.2666 87.0908 24.9565 87.0908 16.3364C87.0908 15.0669 87.1099 13.6133 87.1479 11.9756C87.186 10.3252 87.2051 9.43652 87.2051 9.30957L87.0718 9.06201C85.9546 14.0894 85.1167 17.5361 84.5581 19.4023C83.3901 23.249 81.9556 26.48 80.2544 29.0952L76.4268 27.3242C82.8506 18.7295 86.0688 10.687 86.0815 3.19678L92.0801 1.69238C91.4199 6.14844 91.0898 9.70312 91.0898 12.3564C91.0898 13.2578 91.166 14.7305 91.3184 16.7744C91.3691 17.4473 91.4771 18.2153 91.6421 19.0786C91.896 20.3101 92.1562 20.9258 92.4229 20.9258C93.502 20.9258 94.7969 19.2627 96.3076 15.9365C97.0947 14.2227 98.2817 11.1313 99.8687 6.6626C101.049 3.33643 101.779 1.67334 102.059 1.67334C102.858 1.67334 103.715 2.28906 104.629 3.52051C105.493 4.67578 105.924 5.66602 105.924 6.49121C105.924 6.55469 105.689 7.09424 105.22 8.10986C104.001 10.7759 103.392 14.6733 103.392 19.8022ZM125.596 6.64355C122.828 6.30078 120.987 6.14209 120.073 6.16748L117.636 6.24365C116.519 8.78271 115.433 11.6138 114.379 14.7368L114.551 14.8511L116.15 13.0229C118.702 12.7563 121.311 12.623 123.977 12.623L121.863 17.0981C120.505 16.7554 118.715 16.584 116.493 16.584C115.363 16.584 114.544 16.6855 114.037 16.8887C113.694 17.6504 113.281 19.3452 112.799 21.9731L110.076 24.4487L110.19 24.5439C111.104 24.5439 112.481 24.4106 114.322 24.144C116.163 23.8774 117.547 23.7441 118.474 23.7441C120.2 23.7441 121.705 23.8394 122.987 24.0298L121.33 28.8857C118.956 28.416 116.582 28.1812 114.208 28.1812C110.577 28.1812 108.013 28.4351 106.515 28.9429C107.2 26.937 107.962 23.6362 108.8 19.0405C109.612 14.7114 110.438 11.4297 111.275 9.19531L115.027 6.45312C113.237 6.63086 111.599 6.89111 110.114 7.23389L112.056 3.12061C116.271 2.15576 119.927 1.67334 123.025 1.67334C124.053 1.67334 125.507 1.7749 127.386 1.97803L125.596 6.64355ZM142.772 6.396C140.373 7.14502 138.088 7.55127 135.917 7.61475L138.126 8.81445C136.272 13.3594 135.346 18.228 135.346 23.4204C135.346 24.8042 135.409 26.2197 135.536 27.667L129.671 29.2476C129.671 22.1382 131.048 14.9526 133.803 7.69092C132.521 7.69092 130.496 7.34814 127.729 6.6626L129.442 2.16846C131.359 2.854 133.353 3.19678 135.422 3.19678C136.336 3.19678 137.675 3.02539 139.44 2.68262C141.217 2.33984 142.512 2.16846 143.325 2.16846H144.201L142.772 6.396ZM148.657 29.2666C147.044 29.2666 145.477 27.8828 143.953 25.1152C142.595 22.6396 141.916 20.5132 141.916 18.7358C141.916 15.6382 142.887 12.4136 144.829 9.06201C146.771 5.71045 149.082 3.25391 151.761 1.69238L154.808 3.34912C158.083 2.43506 159.752 1.97803 159.816 1.97803C160.476 1.97803 161.104 3.03174 161.701 5.13916C162.196 6.9165 162.444 8.2876 162.444 9.25244C162.444 11.4106 161.777 14.064 160.444 17.2124C159.061 20.5132 157.378 23.2617 155.398 25.458C153.113 27.9971 150.866 29.2666 148.657 29.2666ZM155.284 4.28223H154.712C152.186 6.21191 150.269 8.80811 148.961 12.0708C147.768 15.0288 147.171 18.2407 147.171 21.7065C147.171 22.8618 147.889 24.4995 149.323 26.6196C154.363 21.5669 156.883 16.6157 156.883 11.7661C156.883 9.55713 156.35 7.0625 155.284 4.28223ZM180.306 29.3999C179.303 29.3999 178.402 28.6191 177.602 27.0576C176.917 25.7119 176.574 24.4805 176.574 23.3633C176.574 20.6211 176.809 17.9106 177.278 15.2319C176.148 17.8472 175.019 20.4561 173.889 23.0586C172.162 26.7148 170.537 28.7842 169.014 29.2666C168.354 29.2666 167.344 28.3018 165.986 26.3721C164.653 24.4805 163.986 23.1538 163.986 22.3921C163.986 17.1997 165.237 10.8267 167.738 3.27295L173.66 1.69238C171.718 7.11328 170.601 10.3379 170.309 11.3662C169.191 15.0986 168.633 18.4438 168.633 21.4019C168.633 21.8589 168.804 22.3032 169.147 22.7349C169.477 23.103 169.801 23.4712 170.118 23.8394C172.238 21.5669 173.958 18.6597 175.279 15.1177C176.32 11.9058 177.354 8.6875 178.383 5.46289C178.751 4.42187 179.678 3.53955 181.163 2.81592C182.483 2.16846 183.772 1.83838 185.029 1.82568L185.905 2.7207C185.905 3.55859 185.492 4.7583 184.667 6.31982C183.537 8.45264 182.769 10.084 182.363 11.2139C181.55 13.5625 181.144 16.1206 181.144 18.8882C181.144 19.269 181.15 19.6499 181.163 20.0308L181.277 23.0776C182.56 21.9858 184.223 20.1006 186.267 17.4219C188.603 14.375 189.771 12.3057 189.771 11.2139C189.771 10.5791 189.656 9.63965 189.428 8.39551C189.212 7.13867 189.104 6.21191 189.104 5.61523C189.104 4.57422 189.821 3.49512 191.256 2.37793C192.589 1.33691 193.808 0.759277 194.912 0.64502C195.382 1.00049 195.617 1.43213 195.617 1.93994C195.617 3.27295 194.525 6.25 192.341 10.8711C190.221 15.3906 188 19.4976 185.676 23.1919C183.074 27.3306 181.284 29.3999 180.306 29.3999ZM212.279 28.6001L208.356 29.7046C205.119 24.3218 202.993 16.9775 201.977 7.67188C200.263 17.3965 198.226 24.7534 195.864 29.7427C195.191 29.5142 193.846 28.8794 191.827 27.8384C197.489 18.6343 200.327 10.4458 200.339 3.27295L206.262 1.69238L206.205 4.24414C206.116 7.15137 206.522 10.5981 207.423 14.5845C208.439 19.1167 209.715 22.2524 211.251 23.9917C212.825 19.5483 213.612 16.1523 213.612 13.8037C213.612 13.0166 213.346 11.8867 212.812 10.4141C212.279 8.92871 212.013 7.78613 212.013 6.98633C212.013 5.90723 212.603 4.75195 213.784 3.52051C214.964 2.28906 216.094 1.67334 217.173 1.67334C217.173 1.67334 217.491 1.79395 218.125 2.03516C218.227 2.69531 218.278 3.02539 218.278 3.02539C218.278 5.86914 217.529 10.1221 216.031 15.7842C215.586 17.498 214.336 21.77 212.279 28.6001Z" fill="#0F8FEB"/>
<path opacity="0.6" d="M19.8618 38.043C18.6177 36.875 17.6719 36.0371 17.0244 35.5293C15.7168 34.5137 14.6377 33.936 13.7871 33.7964C12.3398 34.812 10.9688 37.1924 9.67383 40.9375C8.49316 44.3398 7.90283 47.1138 7.90283 49.2593C7.90283 50.2114 8.46143 51.2969 9.57861 52.5156C10.6958 53.7217 11.7178 54.3247 12.6445 54.3247C13.6729 54.3247 15.5454 53.3662 18.2622 51.4492L19.1953 52.8394C17.1514 54.6167 15.6597 55.8101 14.7202 56.4194C12.854 57.6255 11.083 58.2285 9.40723 58.2285C7.41406 58.2285 5.71924 57.1621 4.32275 55.0293C3.06592 53.1377 2.4375 51.1382 2.4375 49.0308C2.4375 44.9302 3.71973 40.9565 6.28418 37.1099C9.12793 32.8188 12.4922 30.6733 16.377 30.6733C17.5703 30.6733 18.7764 31.0859 19.9951 31.9111C20.7568 32.4189 21.7344 33.2695 22.9277 34.4629L19.8618 38.043ZM41.4756 56.7432C40.2568 57.0605 38.4541 57.562 36.0674 58.2476C36.0674 53.9692 36.6006 49.3862 37.667 44.4985C35.0898 44.4985 32.9126 44.9365 31.1353 45.8125C28.7739 54.1152 26.8062 58.2666 25.2319 58.2666C24.6987 58.2666 24.1338 57.6763 23.5371 56.4956C23.0166 55.4292 22.7563 54.585 22.7563 53.9629C22.7563 52.6934 23.2896 51.2334 24.356 49.583C25.6636 47.5645 26.4253 46.187 26.6411 45.4507C27.1743 43.6733 27.5171 41.5088 27.6694 38.957C27.7202 37.9541 27.7646 35.7515 27.8027 32.3491C29.2246 31.9556 31.1099 31.5049 33.4585 30.9971C33.4585 33.5361 32.8745 37.6431 31.7065 43.3179C34.728 41.9976 37.0894 41.1597 38.7905 40.8042C39.3364 38.8745 39.7554 37.4463 40.0474 36.5195C40.5552 34.9453 41.0757 33.5552 41.6089 32.3491C42.9292 31.9937 44.897 31.4478 47.5122 30.7114C45.3032 35.1294 43.7544 39.0903 42.8657 42.5942C41.9263 46.2759 41.4565 50.4019 41.4565 54.9722C41.4565 55.5435 41.4629 56.1338 41.4756 56.7432ZM60.8042 58.2476C59.8394 56.064 59.2617 53.0107 59.0713 49.0879C57.8398 48.5293 56.2593 48.25 54.3296 48.25H53.606C52.6792 50.04 51.5493 51.9507 50.2163 53.9819C48.2993 56.9272 46.9854 58.3999 46.2744 58.3999C45.4365 58.3999 45.0176 57.4033 45.0176 55.4102C45.0176 53.9375 45.2778 52.7188 45.7983 51.7539C46.1919 50.9922 46.8647 50.2178 47.8169 49.4307C48.7817 48.6816 49.7466 47.9263 50.7114 47.1646C51.9048 46.1743 53.3521 43.8574 55.0532 40.2139C56.7544 36.6084 57.6367 34.0059 57.7002 32.4062L63.9844 30.6924C63.502 33.6504 63.2607 37.1035 63.2607 41.0518C63.2607 46.917 64.0352 52.1729 65.584 56.8193C63.6035 57.3398 62.0103 57.8159 60.8042 58.2476ZM59.0142 35.2437C57.6938 39.7378 56.1831 43.4385 54.4819 46.3457C55.3833 46.1807 56.8623 46.0981 58.9189 46.0981C58.9443 43.9653 59.0967 40.3472 59.376 35.2437H59.0142ZM70.7827 51.7349C69.856 51.7349 69.291 51.2651 69.0879 50.3257C69.5068 49.6021 70.6113 48.7896 72.4014 47.8882C74.1533 46.9995 75.48 46.5552 76.3813 46.5552C76.4829 46.5552 76.6479 46.644 76.8765 46.8218C77.3335 48.0659 77.5684 48.7007 77.5811 48.7261C77.8604 49.4116 78.1777 50.0083 78.5332 50.5161C77.6699 50.5288 76.3813 50.7383 74.6675 51.1445C72.9663 51.5381 71.6714 51.7349 70.7827 51.7349ZM99.5757 38.043C98.3315 36.875 97.3857 36.0371 96.7383 35.5293C95.4307 34.5137 94.3516 33.936 93.501 33.7964C92.0537 34.812 90.6826 37.1924 89.3877 40.9375C88.207 44.3398 87.6167 47.1138 87.6167 49.2593C87.6167 50.2114 88.1753 51.2969 89.2925 52.5156C90.4097 53.7217 91.4316 54.3247 92.3584 54.3247C93.3867 54.3247 95.2593 53.3662 97.9761 51.4492L98.9092 52.8394C96.8652 54.6167 95.3735 55.8101 94.4341 56.4194C92.5679 57.6255 90.7969 58.2285 89.1211 58.2285C87.1279 58.2285 85.4331 57.1621 84.0366 55.0293C82.7798 53.1377 82.1514 51.1382 82.1514 49.0308C82.1514 44.9302 83.4336 40.9565 85.998 37.1099C88.8418 32.8188 92.2061 30.6733 96.0908 30.6733C97.2842 30.6733 98.4902 31.0859 99.709 31.9111C100.471 32.4189 101.448 33.2695 102.642 34.4629L99.5757 38.043ZM121.189 56.7432C119.971 57.0605 118.168 57.562 115.781 58.2476C115.781 53.9692 116.314 49.3862 117.381 44.4985C114.804 44.4985 112.626 44.9365 110.849 45.8125C108.488 54.1152 106.52 58.2666 104.946 58.2666C104.413 58.2666 103.848 57.6763 103.251 56.4956C102.73 55.4292 102.47 54.585 102.47 53.9629C102.47 52.6934 103.003 51.2334 104.07 49.583C105.377 47.5645 106.139 46.187 106.355 45.4507C106.888 43.6733 107.231 41.5088 107.383 38.957C107.434 37.9541 107.479 35.7515 107.517 32.3491C108.938 31.9556 110.824 31.5049 113.172 30.9971C113.172 33.5361 112.588 37.6431 111.42 43.3179C114.442 41.9976 116.803 41.1597 118.504 40.8042C119.05 38.8745 119.469 37.4463 119.761 36.5195C120.269 34.9453 120.79 33.5552 121.323 32.3491C122.643 31.9937 124.611 31.4478 127.226 30.7114C125.017 35.1294 123.468 39.0903 122.58 42.5942C121.64 46.2759 121.17 50.4019 121.17 54.9722C121.17 55.5435 121.177 56.1338 121.189 56.7432ZM140.518 58.2476C139.553 56.064 138.976 53.0107 138.785 49.0879C137.554 48.5293 135.973 48.25 134.043 48.25H133.32C132.393 50.04 131.263 51.9507 129.93 53.9819C128.013 56.9272 126.699 58.3999 125.988 58.3999C125.15 58.3999 124.731 57.4033 124.731 55.4102C124.731 53.9375 124.992 52.7188 125.512 51.7539C125.906 50.9922 126.579 50.2178 127.531 49.4307C128.496 48.6816 129.46 47.9263 130.425 47.1646C131.619 46.1743 133.066 43.8574 134.767 40.2139C136.468 36.6084 137.351 34.0059 137.414 32.4062L143.698 30.6924C143.216 33.6504 142.975 37.1035 142.975 41.0518C142.975 46.917 143.749 52.1729 145.298 56.8193C143.317 57.3398 141.724 57.8159 140.518 58.2476ZM138.728 35.2437C137.408 39.7378 135.897 43.4385 134.196 46.3457C135.097 46.1807 136.576 46.0981 138.633 46.0981C138.658 43.9653 138.811 40.3472 139.09 35.2437H138.728ZM150.497 51.7349C149.57 51.7349 149.005 51.2651 148.802 50.3257C149.221 49.6021 150.325 48.7896 152.115 47.8882C153.867 46.9995 155.194 46.5552 156.095 46.5552C156.197 46.5552 156.362 46.644 156.59 46.8218C157.047 48.0659 157.282 48.7007 157.295 48.7261C157.574 49.4116 157.892 50.0083 158.247 50.5161C157.384 50.5288 156.095 50.7383 154.381 51.1445C152.68 51.5381 151.385 51.7349 150.497 51.7349ZM179.29 38.043C178.045 36.875 177.1 36.0371 176.452 35.5293C175.145 34.5137 174.065 33.936 173.215 33.7964C171.768 34.812 170.396 37.1924 169.102 40.9375C167.921 44.3398 167.331 47.1138 167.331 49.2593C167.331 50.2114 167.889 51.2969 169.006 52.5156C170.124 53.7217 171.146 54.3247 172.072 54.3247C173.101 54.3247 174.973 53.3662 177.69 51.4492L178.623 52.8394C176.579 54.6167 175.087 55.8101 174.148 56.4194C172.282 57.6255 170.511 58.2285 168.835 58.2285C166.842 58.2285 165.147 57.1621 163.75 55.0293C162.494 53.1377 161.865 51.1382 161.865 49.0308C161.865 44.9302 163.147 40.9565 165.712 37.1099C168.556 32.8188 171.92 30.6733 175.805 30.6733C176.998 30.6733 178.204 31.0859 179.423 31.9111C180.185 32.4189 181.162 33.2695 182.355 34.4629L179.29 38.043ZM200.903 56.7432C199.685 57.0605 197.882 57.562 195.495 58.2476C195.495 53.9692 196.028 49.3862 197.095 44.4985C194.518 44.4985 192.34 44.9365 190.563 45.8125C188.202 54.1152 186.234 58.2666 184.66 58.2666C184.126 58.2666 183.562 57.6763 182.965 56.4956C182.444 55.4292 182.184 54.585 182.184 53.9629C182.184 52.6934 182.717 51.2334 183.784 49.583C185.091 47.5645 185.853 46.187 186.069 45.4507C186.602 43.6733 186.945 41.5088 187.097 38.957C187.148 37.9541 187.192 35.7515 187.23 32.3491C188.652 31.9556 190.538 31.5049 192.886 30.9971C192.886 33.5361 192.302 37.6431 191.134 43.3179C194.156 41.9976 196.517 41.1597 198.218 40.8042C198.764 38.8745 199.183 37.4463 199.475 36.5195C199.983 34.9453 200.503 33.5552 201.037 32.3491C202.357 31.9937 204.325 31.4478 206.94 30.7114C204.731 35.1294 203.182 39.0903 202.293 42.5942C201.354 46.2759 200.884 50.4019 200.884 54.9722C200.884 55.5435 200.891 56.1338 200.903 56.7432ZM220.232 58.2476C219.267 56.064 218.689 53.0107 218.499 49.0879C217.268 48.5293 215.687 48.25 213.757 48.25H213.034C212.107 50.04 210.977 51.9507 209.644 53.9819C207.727 56.9272 206.413 58.3999 205.702 58.3999C204.864 58.3999 204.445 57.4033 204.445 55.4102C204.445 53.9375 204.706 52.7188 205.226 51.7539C205.62 50.9922 206.292 50.2178 207.245 49.4307C208.209 48.6816 209.174 47.9263 210.139 47.1646C211.333 46.1743 212.78 43.8574 214.481 40.2139C216.182 36.6084 217.064 34.0059 217.128 32.4062L223.412 30.6924C222.93 33.6504 222.688 37.1035 222.688 41.0518C222.688 46.917 223.463 52.1729 225.012 56.8193C223.031 57.3398 221.438 57.8159 220.232 58.2476ZM218.442 35.2437C217.122 39.7378 215.611 43.4385 213.91 46.3457C214.811 46.1807 216.29 46.0981 218.347 46.0981C218.372 43.9653 218.524 40.3472 218.804 35.2437H218.442ZM243.445 35.396C241.046 36.145 238.761 36.5513 236.59 36.6147L238.799 37.8145C236.945 42.3594 236.019 47.228 236.019 52.4204C236.019 53.8042 236.082 55.2197 236.209 56.667L230.344 58.2476C230.344 51.1382 231.721 43.9526 234.476 36.6909C233.194 36.6909 231.169 36.3481 228.401 35.6626L230.115 31.1685C232.032 31.854 234.025 32.1968 236.095 32.1968C237.009 32.1968 238.348 32.0254 240.113 31.6826C241.89 31.3398 243.185 31.1685 243.998 31.1685H244.874L243.445 35.396Z" fill="#0F8FEB"/>
</svg>
