<svg width="321" height="71" viewBox="0 0 321 71" fill="none" xmlns="http://www.w3.org/2000/svg">
<path d="M64.5455 22.5264V51.6364C64.5455 55.1864 61.6409 58.0909 58.0909 58.0909H12.9091L0 71V12.9091C0 9.35909 2.90455 6.45455 6.45455 6.45455H39.05C38.8564 7.48727 38.7273 8.58455 38.7273 9.68182C38.7273 10.7791 38.8564 11.8764 39.05 12.9091H6.45455V51.6364H58.0909V25.4955C60.4791 25.0114 62.6736 23.9464 64.5455 22.5264ZM45.1818 9.68182C45.1818 15.0391 49.5064 19.3636 54.8636 19.3636C60.2209 19.3636 64.5455 15.0391 64.5455 9.68182C64.5455 4.32455 60.2209 0 54.8636 0C49.5064 0 45.1818 4.32455 45.1818 9.68182Z" fill="#0F8FEB"/>
<path d="M46.2789 29.1449L33.5338 17.5846C33.1195 17.2088 32.5739 17.0054 32.011 17.017C31.4481 17.0285 30.9115 17.2542 30.5134 17.6466L18.7916 29.2034L18.1901 29.7964V46.8333H29.4855V36.2032H35.6467V46.8333H46.9422V29.7466L46.2789 29.1449ZM32.0551 19.0413C32.0732 19.0413 32.0621 19.0452 32.0543 19.0527C32.0463 19.0452 32.037 19.0413 32.0551 19.0413ZM44.8884 44.8085H37.7004V36.2032C37.7004 35.6662 37.4841 35.1512 37.0989 34.7715C36.7138 34.3918 36.1914 34.1784 35.6467 34.1784H29.4855C28.9409 34.1784 28.4185 34.3918 28.0334 34.7715C27.6482 35.1512 27.4318 35.6662 27.4318 36.2032V44.8085H20.2438V30.6351L32.0551 19.0784C32.056 19.0776 32.056 19.0769 32.0567 19.0761L44.8884 30.6351V44.8085Z" fill="#979797"/>
<path opacity="0.6" d="M120.909 36.7432C119.69 37.0605 117.888 37.562 115.501 38.2476C115.501 33.9692 116.034 29.3862 117.101 24.4985C114.523 24.4985 112.346 24.9365 110.569 25.8125C108.208 34.1152 106.24 38.2666 104.666 38.2666C104.132 38.2666 103.567 37.6763 102.971 36.4956C102.45 35.4292 102.19 34.585 102.19 33.9629C102.19 32.6934 102.723 31.2334 103.79 29.583C105.097 27.5645 105.859 26.187 106.075 25.4507C106.608 23.6733 106.951 21.5088 107.103 18.957C107.154 17.9541 107.198 15.7515 107.236 12.3491C108.658 11.9556 110.543 11.5049 112.892 10.9971C112.892 13.5361 112.308 17.6431 111.14 23.3179C114.162 21.9976 116.523 21.1597 118.224 20.8042C118.77 18.8745 119.189 17.4463 119.481 16.5195C119.989 14.9453 120.509 13.5552 121.042 12.3491C122.363 11.9937 124.331 11.4478 126.946 10.7114C124.737 15.1294 123.188 19.0903 122.299 22.5942C121.36 26.2759 120.89 30.4019 120.89 34.9722C120.89 35.5435 120.896 36.1338 120.909 36.7432ZM133.763 38.2666C132.151 38.2666 130.583 36.8828 129.06 34.1152C127.701 31.6396 127.022 29.5132 127.022 27.7358C127.022 24.6382 127.993 21.4136 129.936 18.062C131.878 14.7104 134.188 12.2539 136.867 10.6924L139.914 12.3491C143.189 11.4351 144.859 10.978 144.922 10.978C145.583 10.978 146.211 12.0317 146.808 14.1392C147.303 15.9165 147.55 17.2876 147.55 18.2524C147.55 20.4106 146.884 23.064 145.551 26.2124C144.167 29.5132 142.485 32.2617 140.504 34.458C138.219 36.9971 135.972 38.2666 133.763 38.2666ZM140.39 13.2822H139.819C137.292 15.2119 135.375 17.8081 134.068 21.0708C132.875 24.0288 132.278 27.2407 132.278 30.7065C132.278 31.8618 132.995 33.4995 134.43 35.6196C139.47 30.5669 141.99 25.6157 141.99 20.7661C141.99 18.5571 141.457 16.0625 140.39 13.2822ZM173.392 28.8022C173.392 30.8589 173.588 33.5059 173.982 36.7432C172.916 37.0479 171.297 37.4541 169.126 37.9619C168.732 35.626 168.536 33.7344 168.536 32.2871C168.536 29.8115 169.069 25.9141 170.135 20.5947L170.002 20.4805C168.897 23.2607 167.311 26.5615 165.241 30.3828C162.41 35.6387 160.411 38.2666 159.243 38.2666C157.808 38.2666 157.091 33.9565 157.091 25.3364C157.091 24.0669 157.11 22.6133 157.148 20.9756C157.186 19.3252 157.205 18.4365 157.205 18.3096L157.072 18.062C155.955 23.0894 155.117 26.5361 154.558 28.4023C153.39 32.249 151.956 35.48 150.254 38.0952L146.427 36.3242C152.851 27.7295 156.069 19.687 156.082 12.1968L162.08 10.6924C161.42 15.1484 161.09 18.7031 161.09 21.3564C161.09 22.2578 161.166 23.7305 161.318 25.7744C161.369 26.4473 161.477 27.2153 161.642 28.0786C161.896 29.3101 162.156 29.9258 162.423 29.9258C163.502 29.9258 164.797 28.2627 166.308 24.9365C167.095 23.2227 168.282 20.1313 169.869 15.6626C171.049 12.3364 171.779 10.6733 172.059 10.6733C172.858 10.6733 173.715 11.2891 174.629 12.5205C175.493 13.6758 175.924 14.666 175.924 15.4912C175.924 15.5547 175.689 16.0942 175.22 17.1099C174.001 19.7759 173.392 23.6733 173.392 28.8022ZM195.596 15.6436C192.828 15.3008 190.987 15.1421 190.073 15.1675L187.636 15.2437C186.519 17.7827 185.433 20.6138 184.379 23.7368L184.551 23.8511L186.15 22.0229C188.702 21.7563 191.311 21.623 193.977 21.623L191.863 26.0981C190.505 25.7554 188.715 25.584 186.493 25.584C185.363 25.584 184.544 25.6855 184.037 25.8887C183.694 26.6504 183.281 28.3452 182.799 30.9731L180.076 33.4487L180.19 33.5439C181.104 33.5439 182.481 33.4106 184.322 33.144C186.163 32.8774 187.547 32.7441 188.474 32.7441C190.2 32.7441 191.705 32.8394 192.987 33.0298L191.33 37.8857C188.956 37.416 186.582 37.1812 184.208 37.1812C180.577 37.1812 178.013 37.4351 176.515 37.9429C177.2 35.937 177.962 32.6362 178.8 28.0405C179.612 23.7114 180.438 20.4297 181.275 18.1953L185.027 15.4531C183.237 15.6309 181.599 15.8911 180.114 16.2339L182.056 12.1206C186.271 11.1558 189.927 10.6733 193.025 10.6733C194.053 10.6733 195.507 10.7749 197.386 10.978L195.596 15.6436ZM212.772 15.396C210.373 16.145 208.088 16.5513 205.917 16.6147L208.126 17.8145C206.272 22.3594 205.346 27.228 205.346 32.4204C205.346 33.8042 205.409 35.2197 205.536 36.667L199.671 38.2476C199.671 31.1382 201.048 23.9526 203.803 16.6909C202.521 16.6909 200.496 16.3481 197.729 15.6626L199.442 11.1685C201.359 11.854 203.353 12.1968 205.422 12.1968C206.336 12.1968 207.675 12.0254 209.44 11.6826C211.217 11.3398 212.512 11.1685 213.325 11.1685H214.201L212.772 15.396ZM218.657 38.2666C217.044 38.2666 215.477 36.8828 213.953 34.1152C212.595 31.6396 211.916 29.5132 211.916 27.7358C211.916 24.6382 212.887 21.4136 214.829 18.062C216.771 14.7104 219.082 12.2539 221.761 10.6924L224.808 12.3491C228.083 11.4351 229.752 10.978 229.816 10.978C230.476 10.978 231.104 12.0317 231.701 14.1392C232.196 15.9165 232.444 17.2876 232.444 18.2524C232.444 20.4106 231.777 23.064 230.444 26.2124C229.061 29.5132 227.378 32.2617 225.398 34.458C223.113 36.9971 220.866 38.2666 218.657 38.2666ZM225.284 13.2822H224.712C222.186 15.2119 220.269 17.8081 218.961 21.0708C217.768 24.0288 217.171 27.2407 217.171 30.7065C217.171 31.8618 217.889 33.4995 219.323 35.6196C224.363 30.5669 226.883 25.6157 226.883 20.7661C226.883 18.5571 226.35 16.0625 225.284 13.2822ZM250.306 38.3999C249.303 38.3999 248.402 37.6191 247.602 36.0576C246.917 34.7119 246.574 33.4805 246.574 32.3633C246.574 29.6211 246.809 26.9106 247.278 24.2319C246.148 26.8472 245.019 29.4561 243.889 32.0586C242.162 35.7148 240.537 37.7842 239.014 38.2666C238.354 38.2666 237.344 37.3018 235.986 35.3721C234.653 33.4805 233.986 32.1538 233.986 31.3921C233.986 26.1997 235.237 19.8267 237.738 12.2729L243.66 10.6924C241.718 16.1133 240.601 19.3379 240.309 20.3662C239.191 24.0986 238.633 27.4438 238.633 30.4019C238.633 30.8589 238.804 31.3032 239.147 31.7349C239.477 32.103 239.801 32.4712 240.118 32.8394C242.238 30.5669 243.958 27.6597 245.279 24.1177C246.32 20.9058 247.354 17.6875 248.383 14.4629C248.751 13.4219 249.678 12.5396 251.163 11.8159C252.483 11.1685 253.772 10.8384 255.029 10.8257L255.905 11.7207C255.905 12.5586 255.492 13.7583 254.667 15.3198C253.537 17.4526 252.769 19.084 252.363 20.2139C251.55 22.5625 251.144 25.1206 251.144 27.8882C251.144 28.269 251.15 28.6499 251.163 29.0308L251.277 32.0776C252.56 30.9858 254.223 29.1006 256.267 26.4219C258.603 23.375 259.771 21.3057 259.771 20.2139C259.771 19.5791 259.656 18.6396 259.428 17.3955C259.212 16.1387 259.104 15.2119 259.104 14.6152C259.104 13.5742 259.821 12.4951 261.256 11.3779C262.589 10.3369 263.808 9.75928 264.912 9.64502C265.382 10.0005 265.617 10.4321 265.617 10.9399C265.617 12.2729 264.525 15.25 262.341 19.8711C260.221 24.3906 258 28.4976 255.676 32.1919C253.074 36.3306 251.284 38.3999 250.306 38.3999ZM282.279 37.6001L278.356 38.7046C275.119 33.3218 272.993 25.9775 271.977 16.6719C270.263 26.3965 268.226 33.7534 265.864 38.7427C265.191 38.5142 263.846 37.8794 261.827 36.8384C267.489 27.6343 270.327 19.4458 270.339 12.2729L276.262 10.6924L276.205 13.2441C276.116 16.1514 276.522 19.5981 277.423 23.5845C278.439 28.1167 279.715 31.2524 281.251 32.9917C282.825 28.5483 283.612 25.1523 283.612 22.8037C283.612 22.0166 283.346 20.8867 282.812 19.4141C282.279 17.9287 282.013 16.7861 282.013 15.9863C282.013 14.9072 282.603 13.752 283.784 12.5205C284.964 11.2891 286.094 10.6733 287.173 10.6733C287.173 10.6733 287.491 10.7939 288.125 11.0352C288.227 11.6953 288.278 12.0254 288.278 12.0254C288.278 14.8691 287.529 19.1221 286.031 24.7842C285.586 26.498 284.336 30.77 282.279 37.6001Z" fill="#0F8FEB"/>
<path opacity="0.6" d="M89.8618 47.043C88.6177 45.875 87.6719 45.0371 87.0244 44.5293C85.7168 43.5137 84.6377 42.936 83.7871 42.7964C82.3398 43.812 80.9688 46.1924 79.6738 49.9375C78.4932 53.3398 77.9028 56.1138 77.9028 58.2593C77.9028 59.2114 78.4614 60.2969 79.5786 61.5156C80.6958 62.7217 81.7178 63.3247 82.6445 63.3247C83.6729 63.3247 85.5454 62.3662 88.2622 60.4492L89.1953 61.8394C87.1514 63.6167 85.6597 64.8101 84.7202 65.4194C82.854 66.6255 81.083 67.2285 79.4072 67.2285C77.4141 67.2285 75.7192 66.1621 74.3228 64.0293C73.0659 62.1377 72.4375 60.1382 72.4375 58.0308C72.4375 53.9302 73.7197 49.9565 76.2842 46.1099C79.1279 41.8188 82.4922 39.6733 86.377 39.6733C87.5703 39.6733 88.7764 40.0859 89.9951 40.9111C90.7568 41.4189 91.7344 42.2695 92.9277 43.4629L89.8618 47.043ZM111.476 65.7432C110.257 66.0605 108.454 66.562 106.067 67.2476C106.067 62.9692 106.601 58.3862 107.667 53.4985C105.09 53.4985 102.913 53.9365 101.135 54.8125C98.7739 63.1152 96.8062 67.2666 95.2319 67.2666C94.6987 67.2666 94.1338 66.6763 93.5371 65.4956C93.0166 64.4292 92.7563 63.585 92.7563 62.9629C92.7563 61.6934 93.2896 60.2334 94.356 58.583C95.6636 56.5645 96.4253 55.187 96.6411 54.4507C97.1743 52.6733 97.5171 50.5088 97.6694 47.957C97.7202 46.9541 97.7646 44.7515 97.8027 41.3491C99.2246 40.9556 101.11 40.5049 103.458 39.9971C103.458 42.5361 102.875 46.6431 101.707 52.3179C104.728 50.9976 107.089 50.1597 108.791 49.8042C109.336 47.8745 109.755 46.4463 110.047 45.5195C110.555 43.9453 111.076 42.5552 111.609 41.3491C112.929 40.9937 114.897 40.4478 117.512 39.7114C115.303 44.1294 113.754 48.0903 112.866 51.5942C111.926 55.2759 111.457 59.4019 111.457 63.9722C111.457 64.5435 111.463 65.1338 111.476 65.7432ZM130.804 67.2476C129.839 65.064 129.262 62.0107 129.071 58.0879C127.84 57.5293 126.259 57.25 124.33 57.25H123.606C122.679 59.04 121.549 60.9507 120.216 62.9819C118.299 65.9272 116.985 67.3999 116.274 67.3999C115.437 67.3999 115.018 66.4033 115.018 64.4102C115.018 62.9375 115.278 61.7188 115.798 60.7539C116.192 59.9922 116.865 59.2178 117.817 58.4307C118.782 57.6816 119.747 56.9263 120.711 56.1646C121.905 55.1743 123.352 52.8574 125.053 49.2139C126.754 45.6084 127.637 43.0059 127.7 41.4062L133.984 39.6924C133.502 42.6504 133.261 46.1035 133.261 50.0518C133.261 55.917 134.035 61.1729 135.584 65.8193C133.604 66.3398 132.01 66.8159 130.804 67.2476ZM129.014 44.2437C127.694 48.7378 126.183 52.4385 124.482 55.3457C125.383 55.1807 126.862 55.0981 128.919 55.0981C128.944 52.9653 129.097 49.3472 129.376 44.2437H129.014ZM140.783 60.7349C139.856 60.7349 139.291 60.2651 139.088 59.3257C139.507 58.6021 140.611 57.7896 142.401 56.8882C144.153 55.9995 145.48 55.5552 146.381 55.5552C146.483 55.5552 146.648 55.644 146.876 55.8218C147.333 57.0659 147.568 57.7007 147.581 57.7261C147.86 58.4116 148.178 59.0083 148.533 59.5161C147.67 59.5288 146.381 59.7383 144.667 60.1445C142.966 60.5381 141.671 60.7349 140.783 60.7349ZM169.576 47.043C168.332 45.875 167.386 45.0371 166.738 44.5293C165.431 43.5137 164.352 42.936 163.501 42.7964C162.054 43.812 160.683 46.1924 159.388 49.9375C158.207 53.3398 157.617 56.1138 157.617 58.2593C157.617 59.2114 158.175 60.2969 159.292 61.5156C160.41 62.7217 161.432 63.3247 162.358 63.3247C163.387 63.3247 165.259 62.3662 167.976 60.4492L168.909 61.8394C166.865 63.6167 165.374 64.8101 164.434 65.4194C162.568 66.6255 160.797 67.2285 159.121 67.2285C157.128 67.2285 155.433 66.1621 154.037 64.0293C152.78 62.1377 152.151 60.1382 152.151 58.0308C152.151 53.9302 153.434 49.9565 155.998 46.1099C158.842 41.8188 162.206 39.6733 166.091 39.6733C167.284 39.6733 168.49 40.0859 169.709 40.9111C170.471 41.4189 171.448 42.2695 172.642 43.4629L169.576 47.043ZM191.189 65.7432C189.971 66.0605 188.168 66.562 185.781 67.2476C185.781 62.9692 186.314 58.3862 187.381 53.4985C184.804 53.4985 182.626 53.9365 180.849 54.8125C178.488 63.1152 176.52 67.2666 174.946 67.2666C174.413 67.2666 173.848 66.6763 173.251 65.4956C172.73 64.4292 172.47 63.585 172.47 62.9629C172.47 61.6934 173.003 60.2334 174.07 58.583C175.377 56.5645 176.139 55.187 176.355 54.4507C176.888 52.6733 177.231 50.5088 177.383 47.957C177.434 46.9541 177.479 44.7515 177.517 41.3491C178.938 40.9556 180.824 40.5049 183.172 39.9971C183.172 42.5361 182.588 46.6431 181.42 52.3179C184.442 50.9976 186.803 50.1597 188.504 49.8042C189.05 47.8745 189.469 46.4463 189.761 45.5195C190.269 43.9453 190.79 42.5552 191.323 41.3491C192.643 40.9937 194.611 40.4478 197.226 39.7114C195.017 44.1294 193.468 48.0903 192.58 51.5942C191.64 55.2759 191.17 59.4019 191.17 63.9722C191.17 64.5435 191.177 65.1338 191.189 65.7432ZM210.518 67.2476C209.553 65.064 208.976 62.0107 208.785 58.0879C207.554 57.5293 205.973 57.25 204.043 57.25H203.32C202.393 59.04 201.263 60.9507 199.93 62.9819C198.013 65.9272 196.699 67.3999 195.988 67.3999C195.15 67.3999 194.731 66.4033 194.731 64.4102C194.731 62.9375 194.992 61.7188 195.512 60.7539C195.906 59.9922 196.579 59.2178 197.531 58.4307C198.496 57.6816 199.46 56.9263 200.425 56.1646C201.619 55.1743 203.066 52.8574 204.767 49.2139C206.468 45.6084 207.351 43.0059 207.414 41.4062L213.698 39.6924C213.216 42.6504 212.975 46.1035 212.975 50.0518C212.975 55.917 213.749 61.1729 215.298 65.8193C213.317 66.3398 211.724 66.8159 210.518 67.2476ZM208.728 44.2437C207.408 48.7378 205.897 52.4385 204.196 55.3457C205.097 55.1807 206.576 55.0981 208.633 55.0981C208.658 52.9653 208.811 49.3472 209.09 44.2437H208.728ZM220.497 60.7349C219.57 60.7349 219.005 60.2651 218.802 59.3257C219.221 58.6021 220.325 57.7896 222.115 56.8882C223.867 55.9995 225.194 55.5552 226.095 55.5552C226.197 55.5552 226.362 55.644 226.59 55.8218C227.047 57.0659 227.282 57.7007 227.295 57.7261C227.574 58.4116 227.892 59.0083 228.247 59.5161C227.384 59.5288 226.095 59.7383 224.381 60.1445C222.68 60.5381 221.385 60.7349 220.497 60.7349ZM249.29 47.043C248.045 45.875 247.1 45.0371 246.452 44.5293C245.145 43.5137 244.065 42.936 243.215 42.7964C241.768 43.812 240.396 46.1924 239.102 49.9375C237.921 53.3398 237.331 56.1138 237.331 58.2593C237.331 59.2114 237.889 60.2969 239.006 61.5156C240.124 62.7217 241.146 63.3247 242.072 63.3247C243.101 63.3247 244.973 62.3662 247.69 60.4492L248.623 61.8394C246.579 63.6167 245.087 64.8101 244.148 65.4194C242.282 66.6255 240.511 67.2285 238.835 67.2285C236.842 67.2285 235.147 66.1621 233.75 64.0293C232.494 62.1377 231.865 60.1382 231.865 58.0308C231.865 53.9302 233.147 49.9565 235.712 46.1099C238.556 41.8188 241.92 39.6733 245.805 39.6733C246.998 39.6733 248.204 40.0859 249.423 40.9111C250.185 41.4189 251.162 42.2695 252.355 43.4629L249.29 47.043ZM270.903 65.7432C269.685 66.0605 267.882 66.562 265.495 67.2476C265.495 62.9692 266.028 58.3862 267.095 53.4985C264.518 53.4985 262.34 53.9365 260.563 54.8125C258.202 63.1152 256.234 67.2666 254.66 67.2666C254.126 67.2666 253.562 66.6763 252.965 65.4956C252.444 64.4292 252.184 63.585 252.184 62.9629C252.184 61.6934 252.717 60.2334 253.784 58.583C255.091 56.5645 255.853 55.187 256.069 54.4507C256.602 52.6733 256.945 50.5088 257.097 47.957C257.148 46.9541 257.192 44.7515 257.23 41.3491C258.652 40.9556 260.538 40.5049 262.886 39.9971C262.886 42.5361 262.302 46.6431 261.134 52.3179C264.156 50.9976 266.517 50.1597 268.218 49.8042C268.764 47.8745 269.183 46.4463 269.475 45.5195C269.983 43.9453 270.503 42.5552 271.037 41.3491C272.357 40.9937 274.325 40.4478 276.94 39.7114C274.731 44.1294 273.182 48.0903 272.293 51.5942C271.354 55.2759 270.884 59.4019 270.884 63.9722C270.884 64.5435 270.891 65.1338 270.903 65.7432ZM290.232 67.2476C289.267 65.064 288.689 62.0107 288.499 58.0879C287.268 57.5293 285.687 57.25 283.757 57.25H283.034C282.107 59.04 280.977 60.9507 279.644 62.9819C277.727 65.9272 276.413 67.3999 275.702 67.3999C274.864 67.3999 274.445 66.4033 274.445 64.4102C274.445 62.9375 274.706 61.7188 275.226 60.7539C275.62 59.9922 276.292 59.2178 277.245 58.4307C278.209 57.6816 279.174 56.9263 280.139 56.1646C281.333 55.1743 282.78 52.8574 284.481 49.2139C286.182 45.6084 287.064 43.0059 287.128 41.4062L293.412 39.6924C292.93 42.6504 292.688 46.1035 292.688 50.0518C292.688 55.917 293.463 61.1729 295.012 65.8193C293.031 66.3398 291.438 66.8159 290.232 67.2476ZM288.442 44.2437C287.122 48.7378 285.611 52.4385 283.91 55.3457C284.811 55.1807 286.29 55.0981 288.347 55.0981C288.372 52.9653 288.524 49.3472 288.804 44.2437H288.442ZM313.445 44.396C311.046 45.145 308.761 45.5513 306.59 45.6147L308.799 46.8145C306.945 51.3594 306.019 56.228 306.019 61.4204C306.019 62.8042 306.082 64.2197 306.209 65.667L300.344 67.2476C300.344 60.1382 301.721 52.9526 304.476 45.6909C303.194 45.6909 301.169 45.3481 298.401 44.6626L300.115 40.1685C302.032 40.854 304.025 41.1968 306.095 41.1968C307.009 41.1968 308.348 41.0254 310.113 40.6826C311.89 40.3398 313.185 40.1685 313.998 40.1685H314.874L313.445 44.396Z" fill="#0F8FEB"/>
</svg>
